<?xml version="1.0" encoding="UTF-8" standalone="no"?>
<!-- Created with Inkscape (http://www.inkscape.org/) -->

<svg
   xmlns:dc="http://purl.org/dc/elements/1.1/"
   xmlns:cc="http://creativecommons.org/ns#"
   xmlns:rdf="http://www.w3.org/1999/02/22-rdf-syntax-ns#"
   xmlns:svg="http://www.w3.org/2000/svg"
   xmlns="http://www.w3.org/2000/svg"
   xmlns:sodipodi="http://sodipodi.sourceforge.net/DTD/sodipodi-0.dtd"
   xmlns:inkscape="http://www.inkscape.org/namespaces/inkscape"
   version="1.1"
   id="svg869"
   width="1589.319"
   height="844.95502"
   viewBox="0 0 1589.3189 844.95498"
   sodipodi:docname="greenLogo.svg"
   inkscape:version="0.92.3 (2405546, 2018-03-11)">
  <metadata
     id="metadata875">
    <rdf:RDF>
      <cc:Work
         rdf:about="">
        <dc:format>image/svg+xml</dc:format>
        <dc:type
           rdf:resource="http://purl.org/dc/dcmitype/StillImage" />
        <dc:title></dc:title>
      </cc:Work>
    </rdf:RDF>
  </metadata>
  <defs
     id="defs873" />
  <sodipodi:namedview
     pagecolor="#ffffff"
     bordercolor="#666666"
     borderopacity="1"
     objecttolerance="10"
     gridtolerance="10"
     guidetolerance="10"
     inkscape:pageopacity="0"
     inkscape:pageshadow="2"
     inkscape:window-width="1440"
     inkscape:window-height="872"
     id="namedview871"
     showgrid="false"
     inkscape:zoom="0.27907893"
     inkscape:cx="104.66618"
     inkscape:cy="660.83333"
     inkscape:window-x="1280"
     inkscape:window-y="0"
     inkscape:window-maximized="1"
     inkscape:current-layer="svg869"
     fit-margin-top="0"
     fit-margin-left="0"
     fit-margin-right="0"
     fit-margin-bottom="0" />
  <path
     inkscape:connector-curvature="0"
     id="path889"
     d="m 0.07665018,298.00798 c 2.57916602,0.3256 17.78627082,7.15339 25.39126182,11.40029 4.09276,2.28551 13.061718,6.21119 19.931094,8.72371 13.532878,4.94975 35.57247,13.9081 47.618706,19.35536 4.150031,1.87663 15.064758,5.97238 24.254908,9.10161 9.19015,3.12926 24.41705,8.48188 33.83748,11.8947 17.91892,6.49166 31.39495,10.97634 45.52904,15.15165 16.8526,4.97841 21.57095,7.11293 23.48094,8.91006 1.41637,3.37547 0.21052,8.62487 0.40668,12.44856 0.28908,3.16155 1.10772,7.19079 1.50788,10.79552 0.45437,4.09312 -0.0516,10.71147 1.01328,12.29298 0.26521,-5.87677 0.85061,-15.3728 0.58245,-16.6356 -0.79923,-3.76375 0.22194,-8.60084 0.61018,-11.36728 0.58455,-4.16526 1.32167,-5.14105 4.28803,-5.67654 4.49522,-0.81154 23.7179,3.52401 61.67001,13.90929 15.8417,4.33494 31.36486,8.15072 34.49587,8.47949 7.63226,0.80142 44.48671,9.44227 63.59821,14.91117 l 15.40727,4.40888 2.76839,13.59221 c 3.43349,25.57061 11.84521,61.0242 14.90115,69.43337 1.22984,1.82963 12.79051,38.12869 12.61085,39.40884 -0.17965,1.28015 0.1469,3.38115 0.72566,4.66889 1.89442,4.21496 6.19165,20.31957 8.63525,32.36223 2.19886,10.83635 8.41998,29.70557 9.86049,29.90773 0.97848,0.13732 -0.19092,-6.67033 -1.83951,-10.70867 -0.83415,-2.04332 -2.16399,-7.91484 -2.95522,-13.04784 -5.76504,-23.96754 -1.76959,-22.63162 -9.44616,-44.18263 -1.12097,-3.12028 -7.48696,-22.72443 -7.38865,-23.42497 -3.18566,-11.60603 -5.01863,-26.10712 -7.80254,-39.12693 -3.23584,-15.13345 -10.21386,-34.95039 -10.34437,-45.31501 -0.0609,-4.8368 0.53899,-6.55987 2.96339,-8.51171 l 3.03974,-2.44724 59.43726,7.91409 c 27.51777,11.75919 80.12359,6.59973 101.07102,11.10839 6.01571,25.05584 9.71903,30.81434 17.21165,43.9264 2.28167,4.14174 7.85906,13.99424 12.39418,21.89446 10.58653,16.86197 11.05932,20.35772 21.57637,31.19458 15.53243,16.08551 35.31804,35.94006 46.21813,46.37918 5.37932,5.15182 9.92309,9.91104 10.09724,10.57603 0.17418,0.66501 1.08449,1.31683 2.02295,1.44854 0.93845,0.1317 6.12827,3.48856 11.53293,7.45968 5.40468,3.97113 12.49696,8.66113 15.76064,10.42223 8.11221,4.37741 33.80798,22.00846 36.66783,25.15946 1.51552,1.66986 2.48332,6.26601 2.78273,13.21539 0.59711,13.85968 16.64035,46.0521 22.32485,61.34766 -3.25869,-18.40632 -6.3321,-23.88255 -6.85706,-25.07675 -0.52498,-1.19419 -11.47286,-24.0204 -11.84493,-30.26787 -0.93534,-15.70416 -0.30661,-15.95984 16.12587,-6.55766 30.67607,17.55192 42.35623,23.48667 52.16422,26.50492 1.38709,0.42685 4.17006,1.81033 6.18437,3.0744 2.01436,1.26407 6.16053,3.04927 9.21377,3.96715 6.02001,1.80973 12.25246,4.85798 20.01979,9.79153 2.72464,1.73062 6.09685,3.30697 7.49377,3.50301 2.44231,0.34275 17.46681,6.8112 46.5266,20.03094 43.07394,29.52748 41.68996,20.60575 63.60166,32.70013 12.49519,5.46449 19.71195,9.84259 32.93765,20.27712 -8.6479,1.40872 -12.9835,2.50783 -15.74782,2.38239 -6.1915,-0.28983 -13.03127,0.60808 -21.15869,2.77764 -6.60532,1.76325 -13.50713,3.28088 -15.33743,3.37251 -20.55855,1.02922 -30.24649,2.10326 -37.96444,4.2089 -5.03668,1.37411 -9.84942,2.40129 -10.69499,2.28262 -0.84556,-0.11866 -5.10981,0.76506 -9.4761,1.96382 -4.36626,1.19877 -10.20019,2.79613 -12.96423,3.54969 -8.67264,2.36441 -14.32901,4.65522 -11.19473,13.69273 l 11.10185,32.0116 c -75.26327,-15.9987 -117.02093,-37.0225 -135.12063,-58.46065 -34.15285,-34.44193 -41.15433,-48.52382 -68.35581,-60.00459 -39.55263,-18.3749 -23.18654,16.18857 -94.45052,6.51124 -50.73399,-7.74793 -38.79251,40.60047 -54.09393,60.9895 0,0 -5.46434,-6.24684 -7.35358,-8.17733 -2.76401,-2.82425 -6.21983,-3.9032 -8.06139,-2.93584 -2.94914,1.54917 -7.21623,0.84006 -24.65119,-8.413 -7.09478,-3.76531 -18.58901,-9.57376 -25.54272,-12.90768 -64.76081,-30.99492 -107.17341,-76.00985 -137.26633,-120.86407 -19.90258,-29.74055 -26.08767,-35.38257 -45.72593,-41.71097 -21.09521,-4.56714 -28.44807,9.19109 -30.39787,18.39947 -1.93346,10.18446 1.4076,31.83152 1.68567,54.42534 -9.39278,-8.13295 -35.97017,-34.04359 -40.59975,-44.31656 -5.46064,-17.1598 -15.33785,-22.42155 -19.96254,-34.63908 -4.98372,-13.16599 -0.75198,-28.3816 -8.05063,-40.77118 -3.90251,-6.6246 -12.86125,-10.05774 -17.98895,-16.04369 -13.63286,-15.91467 -15.75271,-37.85851 -33.19464,-51.92748 -20.47,-16.2396 -45.595786,-15.28938 -58.622482,-31.84582 C 66.249632,431.09813 74.909735,421.30989 66.961652,377.46881 64.384382,364.96931 56.830024,350.95206 44.404584,335.61373 29.386033,317.07456 28.927579,316.65718 12.061888,306.17054 4.6815122,301.58158 -0.71189382,297.90842 0.07654318,298.00796 Z M 226.39143,449.43447 c 0.2449,3.64233 1.43987,10.89799 1.43987,10.89799 l 0.79731,-17.90456 c 0.0613,-1.37636 -0.4263,-7.96723 -0.91141,-9.42496 l -2.85382,-7.80748 c 0,0 1.24115,7.43707 1.49546,11.17102 0.29684,4.35824 -0.26046,8.70968 0.0326,13.06799 z m 11.96778,154.35076 c 0.50254,-5.82573 7.26268,-69.38554 0.0636,-89.61621 -1.2742,-3.58077 -5.22742,-36.96268 -9.25038,-42.05886 0,0 6.85083,56.347 7.62473,59.69899 3.31075,14.33968 -1.6576,61.0987 1.56202,71.97608 z M 512.89938,756.8072 c 0.52864,-28.16903 -20.29695,-39.85633 -40.96161,-87.11494 6.1467,39.4161 22.97947,38.22322 40.96161,87.11494 z M 26.093539,286.26296 c 13.965427,1.55414 15.742501,1.45256 26.711419,-1.52701 6.462856,-1.75555 16.108382,-5.26286 21.434403,-7.79401 5.326022,-2.53116 16.02016,-7.64859 23.764691,-11.37207 55.361428,-26.61717 50.779268,-38.82874 89.017898,-49.24796 40.86558,-2.03897 84.13863,-4.24392 118.37793,-24.11347 9.3463,-5.78336 19.10406,-16.27845 30.3965,-22.38469 13.59386,-7.35074 20.24383,-13.06203 44.16387,-16.72075 -2.1151,5.29094 -14.78074,14.77272 -18.89122,23.76825 -3.78266,8.27808 -5.07745,17.56909 -4.76767,26.60593 0.58389,17.03384 -0.73621,37.29127 12.43124,50.33515 9.56725,9.47744 25.02123,8.84821 40.6418,12.63525 50.35913,3.25679 82.07383,-34.07926 126.41185,-42.6001 13.77957,-2.64815 16.27786,-13.05881 24.42597,-19.57675 9.05523,-7.24358 16.74465,-15.91845 27.18607,-21.70525 19.10333,-10.58737 24.34153,-6.25989 37.27876,-16.8268 10.23502,-8.35977 14.50602,-19.30743 27.46053,-29.49169 8.55392,-6.72471 40.22343,-21.10359 30.56869,-11.44885 0,0 -6.04349,22.15701 -4.30376,33.16968 2.18048,13.8026 15.12213,25.86783 17.94656,37.88557 1.64534,16.32971 -4.10552,39.9695 -14.60627,56.9705 -3.7272,6.03443 -9.35164,11.69102 -16.38783,14.70464 l 3.89537,0.54668 c 8.86063,1.6232 13.57905,-5.70785 20.05179,-10.10555 9.9154,-6.71082 21.24966,-15.24614 33.057,-24.89373 7.5833,-6.19618 13.88602,-9.50016 32.88256,-17.23745 26.85548,-10.93825 34.2099,-19.49065 50.01777,-58.16525 3.76033,-9.19977 10.58831,-24.44351 15.17328,-33.87496 4.585,-9.43145 9.25519,-20.86898 10.37821,-25.416748 1.91799,-7.76689 2.17663,-8.12878 4.26222,-5.96368 1.22118,1.26771 3.82708,6.05177 5.79091,10.631208 3.98719,9.29771 7.68545,14.58863 10.47048,14.97947 9.10312,6.64464 36.2005,-41.471988 61.14151,-56.443308 -0.1644,14.1247 19.70389,25.9734 29.51784,22.65068 9.20639,-1.06232 62.04199,2.31938 88.62059,-84.235892 17.4741,84.599112 38.2442,122.64064 -1.3937,180.35794 -15.8081,21.59105 -79.57574,48.90669 -74.5759,59.95338 5.79948,12.81345 18.06279,14.8429 51.7328,8.5612 4.9441,-0.92241 14.4827,-2.35363 21.1969,-3.18051 20.1436,-2.48077 48.1264,-2.14811 74.7427,-18.89681 21.8507,-14.55523 69.5489,0.41752 105.8029,-4.925 63.3056,-9.32893 89.522,-77.95191 134.4954,-86.18649 -14.3109,23.84132 1.9854,73.11336 -0.7911,94.61056 1.1454,17.44909 -21.4876,54.63612 -19.5846,87.89187 37.9336,-60.24344 32.2041,-30.68371 60.3964,-68.53253 4.5898,7.55116 7.9598,16.92453 15.0689,22.9849 13.2943,-3.50894 14.7684,-12.54362 29.252,-15.13239 -8.8277,21.24432 -6.2712,20.31271 -5.1587,40.27549 1.0443,4.85465 1.512,4.75738 2.788,9.77153 3.2173,9.32481 11.1872,13.15511 26.8522,3.68309 51.7762,-26.92697 107.6153,5.43901 137.8802,45.43629 -109.7408,8.56195 -163.7127,34.22761 -219.3741,114.21847 -5.6316,6.20696 -69.0878,50.66196 -92.0134,46.09795 20.3249,41.13043 49.2785,15.95757 103.698,79.96464 -31.8735,-5.64999 -42.1295,21.69597 -58.7734,30.07776 -19.1149,8.60262 -40.1332,16.37997 -61.9812,16.65883 -84.6847,1.08092 -232.2373,-58.21457 -247.9194,-58.34 -30.1786,-0.24136 -57.40121,4.34522 -69.9903,11.79222 -15.94881,9.43442 -30.56784,25.11044 -31.8345,34.13618 -0.91034,6.48671 6.33607,24.41665 15.08453,37.32395 24.78047,24.34555 43.28005,38.57257 58.31438,58.23567 3.55629,2.10432 30.00769,47.01063 29.68919,49.27938 -12.6557,-10.26995 -20.30824,-13.72734 -27.92639,-18.31645 -8.78801,-4.02839 -20.00642,-8.52734 -25.92564,-11.80123 -3.59065,-1.98594 -8.08136,-2.9285 -11.5126,-6.26081 -1.33993,-1.3013 -19.7066,-12.63629 -25.00224,-15.72436 -5.29564,-3.08805 -11.3127,-6.4785 -13.37124,-7.53431 -4.71439,-2.41801 -4.54622,-3.40775 1.26667,-7.45378 6.47468,-4.50668 3.96208,-4.41057 -2.78881,0.10668 -3.00426,2.01025 -6.53029,3.50512 -7.83558,3.32194 -2.82081,-0.39587 -37.13725,-15.35826 -43.92533,-19.15199 -2.60429,-1.4555 -11.84907,-5.75498 -20.54393,-9.55444 -43.22296,-18.8874 -77.60139,-38.38064 -86.09009,-48.81474 -1.50719,-1.8526 -3.70008,-3.50305 -4.87308,-3.66767 -15.12102,-6.47542 -28.18269,-21.12502 -41.30188,-28.09518 -3.41643,-1.5481 -27.72563,-22.90044 -32.2644,-28.33988 -4.64071,-7.6477 -13.31116,-13.49609 -18.63929,-19.35469 -23.80943,-19.25855 -27.88756,-33.00784 -45.67533,-61.67988 -10.73248,-19.9034 -17.86243,-36.79053 -18.14629,-42.97905 -0.17935,-3.91022 0.15153,-4.18331 6.32645,-5.22122 6.43145,-1.08101 35.1053,-1.1604 39.20444,-0.10854 2.31877,0.59502 10.92466,0.53694 18.9848,-0.12813 2.84145,-0.23446 14.34452,-0.33098 25.56236,-0.21451 53.145,-0.14605 87.619,-5.56108 130.70695,-3.13068 1.55001,0.21752 3.65274,1.79172 4.6727,3.49821 1.85255,3.09946 1.85514,3.09854 2.49107,-0.88804 0.72249,-4.53015 3.96409,-5.82129 22.48895,-8.95789 13.82642,-2.34104 22.44206,-4.01612 40.24012,-7.82352 16.95877,-3.62788 15.49437,-4.10903 27.66315,9.08935 3.94403,4.27775 9.42753,9.87825 12.18551,12.44554 5.09038,4.73842 22.11182,17.45707 23.6522,17.67325 0.46309,0.065 2.96837,2.01377 5.56724,4.33063 2.59886,2.31686 7.51583,5.37992 10.92657,6.8068 3.41075,1.42688 7.71196,3.52609 9.55824,4.66489 11.04584,6.8132 21.5525,9.94015 47.8132,14.23 14.4025,2.35271 143.0663,48.2182 150.1606,49.12847 34.7313,5.89966 54.8739,14.78142 80.6386,18.01836 -9.2723,-3.93011 -62.7869,-24.74594 -77.2082,-26.35062 -6.7293,-0.65055 -136.0519,-41.95768 -152.4781,-44.98696 -27.90596,-5.14625 -30.62845,-5.87158 -41.48884,-11.0534 -9.50804,-4.53656 -26.84906,-15.41758 -42.21646,-26.48966 -16.99611,-12.24553 -29.30818,-25.24651 -28.6113,-30.21219 0.58374,-4.15953 0.96093,-4.3511 19.17246,-9.73721 8.12439,-2.40282 18.44339,-5.75786 22.93111,-7.45567 4.48775,-1.6978 25.35531,-5.79387 44.53046,-10.91694 19.17517,-5.12307 93.31247,2.03589 113.33797,14.77647 36.9895,18.35214 104.3603,26.15818 159.8355,7.61959 49.4712,-20.46741 112.3174,-53.38869 163.1679,-65.8219 -67.9508,3.71835 -112.9875,39.25665 -163.6984,59.15561 -24.2017,7.3962 -55.0905,13.43052 -107.3627,6.10573 -8.4149,-9.45082 39.6808,-56.5385 58.87,-67.07999 22.9898,-36.51207 17.5245,-41.8598 45.9311,-86.45707 -41.1216,48.79794 -30.5188,62.75936 -50.8863,81.30128 -11.5776,10.54001 -52.2713,43.78626 -66.873,68.73415 -7.6803,-0.65011 -64.3552,-30.61727 -144.697,-25.27815 -6.14608,0.82148 -26.32776,4.94218 -38.15403,8.85602 -11.1761,3.32357 -32.26806,12.31475 -49.62921,13.84109 -6.0755,0.2568 -5.93041,-0.5702 1.83279,-10.44585 16.78368,-21.35076 67.55401,-65.62423 98.04875,-86.45455 31.8991,-17.27085 38.9724,-22.66897 57.1366,-47.11345 -57.0428,46.42713 -69.8091,45.30085 -74.86015,48.91016 -17.17446,15.80328 -27.03842,22.76409 -37.79878,33.5241 -8.53291,8.53 -18.9559,21.66852 -20.40041,22.32269 -1.44452,0.65418 -6.34897,5.36655 -10.89879,10.47193 -4.54979,5.10539 -9.07413,9.95335 -10.05405,10.77327 -0.97991,0.81993 -4.96596,5.37694 -8.85788,10.1267 -7.03911,8.59066 -7.14363,8.65414 -19.93668,12.10899 -13.80135,3.72713 -24.65514,5.83246 -51.53451,9.99621 -8.17129,1.26578 -8.86961,1.19942 -10.23718,-0.97298 -2.07182,-3.29105 -4.50816,-3.27187 -6.56034,0.0516 -2.12112,3.43513 -7.30026,5.05405 -19.10186,5.97093 -4.86774,0.37819 -12.98894,1.00845 -18.0471,1.40059 -5.0582,0.39211 -12.02518,0.31602 -15.4822,-0.16913 -23.24268,-1.42392 -34.36701,3.64313 -68.63456,2.63034 -8.81269,-0.54151 -20.18777,-2.45727 -28.51524,-3.15035 -5.94634,-0.51289 -12.68133,-0.59064 -14.96667,-0.17277 -2.28532,0.41786 -9.47174,0.16443 -15.96981,-0.56316 -11.65249,-1.30476 -11.81445,-1.36629 -11.79815,-4.48163 0.0164,-3.13644 13.50874,-17.37675 31.16377,-32.89143 4.09078,-3.59483 10.85801,-9.75125 15.03832,-13.68093 4.18031,-3.92967 12.29341,-11.15137 18.02912,-16.04822 5.7357,-4.89686 13.8346,-12.12131 17.99754,-16.05431 4.16295,-3.93302 8.05523,-7.1069 8.6495,-7.05307 0.59428,0.0538 1.15928,-0.46349 1.25556,-1.14956 0.3036,-2.16328 29.54935,-27.68289 40.20885,-35.08594 5.61507,-3.89965 12.79285,-9.12645 15.95066,-11.61507 3.15781,-2.48865 8.45944,-6.35997 11.78143,-8.60295 7.41523,-5.00674 13.24932,-9.39421 20.80096,-15.64316 3.17756,-2.62941 8.43051,-6.69636 11.67327,-9.03765 3.24273,-2.34129 10.29385,-8.47184 15.66917,-13.62343 5.37534,-5.15162 12.24903,-11.57733 15.27489,-14.27938 3.02584,-2.70205 6.71843,-6.44751 8.2057,-8.32325 1.48731,-1.87574 4.79806,-5.47945 7.35728,-8.00826 2.55917,-2.5288 9.17844,-9.27448 14.70945,-14.99038 5.53101,-5.71592 10.55582,-10.60673 11.16623,-10.86847 2.26664,-0.97193 8.65601,-11.39588 7.5018,-12.23883 -0.65875,-0.48111 -2.34632,0.83458 -3.75013,2.92375 -1.4038,2.08916 -8.56888,9.72897 -15.92236,16.97733 -7.35348,7.24836 -16.82149,16.72094 -21.04005,21.05016 -21.48714,22.05088 -51.3971,47.03641 -78.4921,65.56908 -8.88356,6.07625 -21.29451,14.9937 -27.57991,19.81654 -6.2854,4.82284 -11.91774,8.70008 -12.51631,8.61608 -1.48547,-0.20847 -1.03707,-2.55519 1.92146,-10.05628 2.3864,-6.05049 3.51141,-8.15065 7.60093,-14.18941 5.48124,-8.09384 7.46443,-11.78179 9.13513,-16.98767 1.0217,-3.18359 3.98323,-8.33249 6.58116,-11.44201 2.59793,-3.10951 5.28651,-6.99587 5.9746,-8.63635 0.68811,-1.64049 4.41453,-8.42095 8.28094,-15.06769 3.8664,-6.64673 6.72132,-12.43835 6.34424,-12.87026 -1.3185,-1.51021 -5.29766,1.66313 -6.81427,5.43433 -0.84133,2.09208 -2.3957,4.81924 -3.45414,6.06035 -3.14185,3.68407 -6.73247,10.2327 -7.15005,13.04034 -0.3703,2.48968 -5.3239,11.0967 -10.68539,18.56604 -1.35928,1.8937 -2.83225,4.52944 -3.27327,5.85718 -0.45332,1.36482 -2.12523,2.39316 -3.84659,2.36594 -2.2554,-0.0357 -2.99701,0.67905 -2.86057,2.75682 0.25407,3.86931 -3.89691,16.21662 -7.58412,22.55943 -1.68053,2.89085 -5.04202,9.07874 -7.46997,13.75086 -2.78571,5.36057 -7.40887,11.23725 -12.53035,15.92785 -4.46375,4.0882 -14.9443,13.96077 -23.29011,21.93905 -8.3458,7.97828 -18.59809,16.98754 -22.78287,20.02056 -4.1848,3.03303 -9.5404,7.38825 -11.90137,9.67826 -12.9091,12.52129 -22.00611,20.58598 -25.7057,22.78861 -2.28957,1.36316 -4.23894,3.02075 -4.33196,3.68354 -0.093,0.66279 -2.64861,3.18962 -5.67912,5.61516 -3.03049,2.42555 -6.73983,5.94431 -8.24295,7.81947 -7.03288,8.77365 -10.82109,9.09697 -75.67949,6.45922 -12.1091,-0.49245 -24.97245,-2.81184 -28.71661,-5.17788 12.46703,-12.85379 35.67922,-23.10149 41.08162,-39.77568 -25.65837,21.90765 -31.15821,26.94256 -36.91134,27.58404 -3.58083,4.76726 -5.84628,7.6851 -13.70785,10.70935 -4.79903,2.47627 -4.89933,2.47114 -37.12432,-1.89696 -32.89601,-5.90458 -74.99071,-11.37046 -102.51641,-19.94957 -6.15732,-4.49689 15.30779,-19.52417 97.6906,-67.32466 6.82211,-3.95834 13.29223,-7.07232 14.37807,-6.91993 1.08584,0.15239 7.21945,-2.89629 13.63023,-6.77481 14.92659,-11.23391 41.87148,-21.5967 52.02216,-27.63166 2.72859,-2.39326 14.39072,-1.14385 28.43282,-7.63945 -22.22669,7.24091 -24.93561,3.74052 -22.55151,0.81453 12.95848,-15.90383 22.08597,-27.63838 37.66637,-32.37298 -29.68261,5.75417 -34.48323,30.88181 -46.33342,35.75806 -12.28285,8.75252 -26.89198,14.17166 -41.53981,20.93665 -13.53243,6.32044 -15.84892,7.49254 -21.52426,10.89095 -3.04788,1.82508 -10.97551,6.237 -17.61694,9.80426 -6.64144,3.56724 -12.12528,6.84188 -12.18634,7.27697 -0.0611,0.43508 -3.07323,2.016 -6.69374,3.51316 -3.62048,1.49716 -7.86849,3.7588 -9.44002,5.02587 -1.57156,1.26705 -16.58955,10.52924 -33.37336,20.58263 -16.78381,10.05337 -34.15042,20.46915 -38.59249,23.14614 -7.94162,4.78603 -8.23262,4.84509 -17.42869,3.53757 -11.97301,-1.70239 -15.6623,-3.14948 -15.26405,-5.98725 0.29054,-2.07021 -0.034,-2.15706 -3.86698,-1.0348 -2.30128,0.6738 -7.44487,0.77097 -11.43022,0.21596 -7.93413,-1.10539 -34.34544,-7.87173 -44.27335,-11.34318 -5.01803,-1.75463 -34.57374,-9.64948 -53.43837,-14.27432 -8.66067,-2.12326 -28.11858,-8.93158 -29.93642,-10.47479 -1.66081,-1.40991 5.60312,-10.64812 7.43786,-13.83659 2.5091,-4.36022 37.03864,-29.49786 31.74529,-27.97594 0,0 -28.69638,21.60904 -31.48788,22.82367 -13.62045,12.49084 -13.64162,19.89243 -42.4016,9.01434 -8.76301,-3.31447 -29.33394,-11.91005 -32.77291,-13.13578 -8.51636,-3.03541 -43.524007,-16.82639 -51.154358,-20.15185 -3.402864,-1.48304 -9.652327,-3.73454 -13.887663,-5.00333 -10.30718,-3.08772 -36.085322,-13.60725 -37.602127,-15.34466 -0.776132,-0.88896 4.158549,-0.78908 13.750109,0.27832 z M 294.44856,271.65428 c 3.52171,-1.06827 12.75548,-17.90297 27.00513,-46.67136 -1.04848,-1.20089 -30.32433,59.88211 -84.43015,74.38431 -0.21122,1.21659 22.51401,-2.74085 57.42502,-27.71295 z m 363.84209,-83.09204 c -18.66226,23.30734 -13.5851,53.02497 -48.60048,62.3004 34.45716,-2.99486 36.61038,-40.09421 48.60048,-62.3004 z"
     style="fill:#008080;stroke-width:1.34445274"
     sodipodi:nodetypes="ccsccssccacsscscccccsccsccccassccccccscssccscccsscccsccccsscscsscccccccsccccccaaacacccccccsccaaccsscccccccsccacaaacacsascscaccccsssccssscccccscccsccccccccccccassscccccsccscscccccccccscsccccccssscscsccccscsscscccccsccccccscccccccscscsccccccccccsscscccccccccccccssssssscscscccccccccssscccsscccccccccscccscccscsscscsscscscccccscccscccccccccc" />
</svg>
