<?xml version="1.0" encoding="UTF-8" standalone="no"?>
<!-- Created with Inkscape (http://www.inkscape.org/) 
     Original size:   width="1589.319" height="844.95502"
-->

<svg
   xmlns:dc="http://purl.org/dc/elements/1.1/"
   xmlns:cc="http://creativecommons.org/ns#"
   xmlns:rdf="http://www.w3.org/1999/02/22-rdf-syntax-ns#"
   xmlns:svg="http://www.w3.org/2000/svg"
   xmlns="http://www.w3.org/2000/svg"
   xmlns:sodipodi="http://sodipodi.sourceforge.net/DTD/sodipodi-0.dtd"
   xmlns:inkscape="http://www.inkscape.org/namespaces/inkscape"
   version="1.1"
   id="svg869"
   width="1600"
   height="800"
   viewBox="0 0 1599.9999 799.99996"
   sodipodi:docname="logo-white.svg"
   inkscape:version="0.92.3 (2405546, 2018-03-11)">
  <metadata
     id="metadata875">
    <rdf:RDF>
      <cc:Work
         rdf:about="">
        <dc:format>image/svg+xml</dc:format>
        <dc:type
           rdf:resource="http://purl.org/dc/dcmitype/StillImage" />
        <dc:title></dc:title>
      </cc:Work>
    </rdf:RDF>
  </metadata>
  <defs
     id="defs873" />
  <sodipodi:namedview
     pagecolor="#ffffff"
     bordercolor="#666666"
     borderopacity="1"
     objecttolerance="10"
     gridtolerance="10"
     guidetolerance="10"
     inkscape:pageopacity="0"
     inkscape:pageshadow="2"
     inkscape:window-width="1280"
     inkscape:window-height="969"
     id="namedview871"
     showgrid="false"
     inkscape:zoom="0.35355339"
     inkscape:cx="741.69581"
     inkscape:cy="720.36987"
     inkscape:window-x="0"
     inkscape:window-y="27"
     inkscape:window-maximized="1"
     inkscape:current-layer="svg869"
     fit-margin-top="0"
     fit-margin-left="0"
     fit-margin-right="0"
     fit-margin-bottom="0" />
  <path
     inkscape:connector-curvature="0"
     id="path889"
     d="m 57.497389,275.83026 c 2.522312,0.30828 15.450403,6.4503 22.887737,10.47124 26.639744,14.19834 32.263264,16.79539 61.280184,26.64472 8.98767,2.96277 38.72809,16.5159 47.94097,19.74715 17.52385,6.14627 34.59195,17.10986 48.41434,21.06303 16.48113,4.71354 21.0956,6.73449 22.96345,8.43601 1.38515,3.19588 0.20587,8.16599 0.39761,11.78624 0.28277,2.99335 1.08338,6.80821 1.47463,10.22116 0.44434,3.87535 -0.0516,10.14157 0.99123,11.63894 0.2591,-5.5641 0.83171,-14.5549 0.56941,-15.75052 -0.78165,-3.5635 0.21682,-8.14324 0.59674,-10.76249 0.57154,-3.94365 1.29255,-4.86753 4.19346,-5.37453 4.3963,-0.76836 23.19494,3.33652 60.31068,13.16926 15.49232,4.10431 30.67333,7.71707 33.73534,8.02835 7.46402,0.75878 43.50614,8.9399 62.19644,14.11783 l 15.06749,4.17431 2.70737,12.86905 c 3.35779,24.21015 11.584,57.77747 14.57266,65.73924 1.20285,1.73229 12.50856,36.10009 12.33283,37.31213 -0.17568,1.21204 0.14366,3.20126 0.7098,4.42049 1.85252,3.9907 6.0551,19.23848 8.44463,30.64043 2.15045,10.25981 8.23452,28.12511 9.64337,28.31651 0.9569,0.13002 -0.18678,-6.31544 -1.79914,-10.13892 -0.81573,-1.93461 -2.11622,-7.49374 -2.88991,-12.35364 -5.63809,-22.69237 -1.73058,-21.42753 -9.23801,-41.83194 -1.09628,-2.95427 -7.32191,-21.5154 -7.22586,-22.17867 -3.1153,-10.98854 -4.90792,-24.71811 -7.63049,-37.04522 -3.16441,-14.32829 -9.98865,-33.09089 -10.11622,-42.90407 -0.0609,-4.57946 0.52694,-6.21085 2.89805,-8.05885 l 2.97269,-2.31704 58.12703,7.49303 c 26.91118,11.13356 78.35741,6.2486 98.84311,10.51738 5.8829,23.72277 9.50465,29.17489 16.83216,41.58934 2.23144,3.92138 7.68585,13.24969 12.12103,20.72959 10.35309,15.96484 10.81537,19.2746 21.10075,29.5349 15.19,15.2297 34.53934,34.0279 45.19922,43.91162 5.26078,4.87772 9.70445,9.38373 9.87481,10.01334 0.17023,0.62963 1.06051,1.24677 1.97821,1.37147 0.91783,0.1247 5.99319,3.30296 11.27878,7.0628 5.28556,3.75985 12.22143,8.20032 15.41315,9.86772 7.93337,4.14452 33.06274,20.83753 35.85954,23.82088 1.48233,1.58102 2.42841,5.93263 2.72142,12.51228 0.58395,13.12229 16.27335,43.60194 21.83266,58.08372 -3.18679,-17.42703 -6.19247,-22.61191 -6.70581,-23.74257 -0.51347,-1.13065 -11.22004,-22.74242 -11.58405,-28.6575 -0.91454,-14.86863 -0.29953,-15.11071 15.77041,-6.20876 30.00011,16.61808 41.42267,22.23708 51.01454,25.09475 1.35649,0.40414 4.07812,1.71401 6.04806,2.91083 1.96989,1.19681 6.02467,2.88703 9.01061,3.75608 5.88725,1.71344 11.98238,4.59951 19.57865,9.27058 2.66447,1.63854 5.96236,3.13103 7.3283,3.31664 2.38853,0.32451 17.08179,6.44881 45.50116,18.96521 42.12436,27.9565 40.77104,19.50944 62.19959,30.96035 12.2197,5.17376 19.2776,9.31892 32.2119,19.1983 -8.457,1.33377 -12.6973,2.3744 -15.4009,2.25563 -6.0552,-0.27441 -12.7442,0.57573 -20.6927,2.62986 -6.45946,1.66944 -13.20917,3.10633 -14.99903,3.19308 -20.10529,0.97446 -29.57972,1.99136 -37.12753,3.98497 -4.92571,1.301 -9.63255,2.27353 -10.45928,2.16118 -0.82701,-0.11235 -4.99715,0.72435 -9.26728,1.85933 -4.26987,1.13499 -9.97516,2.64737 -12.67843,3.36083 -8.4815,2.23862 -14.01314,4.40755 -10.94787,12.96423 L 916.73811,800 c -73.6042,-15.1475 -114.44124,-35.05275 -132.14207,-55.35031 -33.40012,-32.60948 -40.2471,-45.94216 -66.84909,-56.8121 -38.68063,-17.39728 -22.67527,15.32727 -92.36827,6.16481 -49.61572,-7.33571 -37.93752,38.44037 -52.90165,57.74462 0,0 -5.34368,-5.91449 -7.19127,-7.74227 -2.70324,-2.67398 -6.08278,-3.69553 -7.88382,-2.77964 -2.88408,1.46675 -7.05717,0.79537 -24.10776,-7.96539 -6.9384,-3.56498 -18.17924,-9.0644 -24.97979,-12.22094 -63.33315,-29.34587 -104.8107,-71.96582 -134.24044,-114.43362 -19.46385,-28.15823 -25.51269,-33.50007 -44.71781,-39.49177 -20.63031,-4.32415 -27.82106,8.70208 -29.72786,17.42054 -1.89088,9.6426 1.37658,30.13795 1.64853,51.52969 -9.18577,-7.70024 -35.17718,-32.23233 -39.70473,-41.95874 -5.3403,-16.24683 -14.99968,-21.22863 -19.52248,-32.79614 -4.87384,-12.46551 -0.73545,-26.87158 -7.87321,-38.60199 -3.81646,-6.27214 -12.57788,-9.52263 -17.59247,-15.1901 C 203.25162,492.4487 201.17857,471.67237 184.121,458.35192 164.10229,442.97633 139.53036,443.876 126.79083,428.20043 110.50545,408.16197 118.97464,398.89451 111.20176,357.38595 108.68132,345.55147 101.29348,332.28 89.141944,317.75773 74.454457,300.20492 -14.972342,254.67361 -31.466252,244.74491 c 1.104873,-3.33764 2.103913,-8.22497 3.121336,-10.38361 z M 267.11723,425.52275 c 0.23925,3.44854 1.40804,10.31817 1.40804,10.31817 l 0.77976,-16.95197 c 0.0614,-1.30313 -0.41694,-7.54334 -0.89141,-8.92351 l -2.79083,-7.39209 c 0,0 1.21371,7.04139 1.46248,10.57668 0.29038,4.12636 -0.25474,8.24629 0.0326,12.37272 z m 11.70379,146.13867 c 0.49145,-5.51577 7.10282,-65.69395 0.0637,-84.84826 -1.24625,-3.39026 -5.11227,-34.99612 -9.04653,-39.82116 0,0 6.69971,53.34911 7.4566,56.52276 3.23769,13.57675 -1.62135,57.848 1.52747,68.14666 z m 268.48843,144.88059 c 0.51689,-26.67033 -19.84952,-37.73581 -40.05883,-82.48008 6.0113,37.31901 22.47304,36.18959 40.05883,82.48008 z M 71.234547,271.03262 c 13.657559,1.47145 15.395474,1.37528 26.122604,-1.44577 6.320379,-1.66215 15.753289,-4.98285 20.961889,-7.37934 5.20864,-2.39649 15.66702,-7.24165 23.24085,-10.76703 54.14106,-25.20103 49.65985,-36.76289 87.05557,-46.62777 39.9647,-1.93049 82.28399,-4.01812 115.76844,-22.83053 9.14019,-5.47567 18.68288,-15.41237 29.72641,-21.19374 13.29425,-6.95965 19.79764,-12.36707 43.19037,-15.83114 -2.06848,5.00944 -14.45475,13.98676 -18.47485,22.50369 -3.69926,7.83765 -4.96555,16.63434 -4.66263,25.19038 0.57125,16.12758 -0.7197,35.30723 12.15714,47.65712 9.35654,8.9732 24.46982,8.37745 39.74615,11.96301 49.24907,3.08351 80.26463,-32.26611 123.62531,-40.33361 13.4758,-2.50726 15.91903,-12.36403 23.8875,-18.53519 8.85547,-6.85819 16.37538,-15.07152 26.58686,-20.55044 18.68215,-10.02408 23.80489,-5.92684 36.45687,-15.93155 10.00947,-7.91499 14.18631,-18.28019 26.85525,-27.92261 8.36535,-6.36693 39.33672,-19.98079 29.89486,-10.83972 0,0 -5.91032,20.97816 -4.20886,31.40492 2.13238,13.06824 14.78866,24.49155 17.55068,35.8699 1.60928,15.4609 -4.01477,37.84296 -14.28408,53.93944 -3.64516,5.71337 -9.14555,11.06901 -16.02666,13.92229 l 3.80963,0.5176 c 8.66542,1.53684 13.2797,-5.40417 19.60967,-9.5679 9.69677,-6.35377 20.78129,-14.43498 32.32813,-23.56928 7.41642,-5.86652 13.58018,-8.99471 32.15776,-16.32035 26.26376,-10.35629 33.45614,-18.45367 48.91525,-55.07062 3.67747,-8.71031 10.35504,-23.14302 14.83885,-32.07268 4.48394,-8.92966 9.05116,-19.75866 10.14953,-24.06447 1.87562,-7.35366 2.12862,-7.6963 4.16827,-5.64639 1.19425,1.20026 3.74268,5.72979 5.66323,10.06559 3.89918,8.80303 7.51594,13.81245 10.23966,14.1825 8.90249,6.29112 35.40241,-39.26551 59.79369,-53.4403 -0.16079,13.37321 19.26948,24.59151 28.86713,21.44557 9.00359,-1.0058 60.67438,2.19598 86.66618,-79.7542 17.0882,80.0981 37.4017,116.11566 -1.3622,170.76217 -15.4596,20.44232 -77.82155,46.30466 -72.93177,56.76362 5.6715,12.13172 17.66454,14.0532 50.59267,8.10571 4.8345,-0.87333 14.1623,-2.22841 20.7293,-3.01129 19.6978,-2.34879 47.066,-2.03383 73.096,-17.89143 21.3687,-13.78083 68.0145,0.39531 103.4694,-4.66297 61.9112,-8.83259 87.5494,-73.80455 131.53,-81.60102 -13.9936,22.57287 1.943,69.22343 -0.7727,89.5769 1.1207,16.52073 -21.0137,51.72926 -19.1531,83.21567 37.096,-57.03825 31.4948,-29.05122 59.0656,-64.88633 4.4896,7.14941 7.784,16.02408 14.7358,21.76201 13.0016,-3.32225 14.4426,-11.87625 28.6076,-14.32728 -8.6321,20.11403 -6.1338,19.23199 -5.0441,38.13267 1.0219,4.59636 1.4778,4.50427 2.7264,9.25164 3.1463,8.8287 10.9392,12.45521 26.2596,3.48714 50.6361,-25.49435 105.2419,5.14963 134.8403,43.0189 -107.3223,8.10642 -160.1046,32.40656 -214.5382,108.14158 -5.5057,5.87673 -67.5634,47.96654 -89.9841,43.64536 19.8764,38.94212 48.1919,15.10856 101.4123,75.7102 -31.1711,-5.34939 -41.2012,20.54165 -57.4795,28.4775 -18.6917,8.14492 -39.2469,15.50849 -60.614,15.77251 -82.8159,1.02341 -227.1163,-55.11732 -242.4547,-55.23608 -29.5128,-0.22852 -56.13536,4.11404 -68.44692,11.16483 -15.59721,8.93247 -29.89426,23.77446 -31.13275,32.32 -0.89036,6.14159 6.19645,23.11758 14.75187,35.33816 24.23426,23.05027 42.32629,36.52036 57.0289,55.1373 3.478,1.99236 29.3469,44.50948 29.0366,46.65752 -12.3792,-9.72355 -19.8623,-12.99699 -27.3126,-17.34194 -8.5943,-3.81407 -19.56532,-8.07365 -25.35407,-11.17336 -3.5115,-1.88028 -7.90326,-2.77269 -11.25882,-5.92771 -1.31038,-1.23206 -19.27217,-11.96399 -24.45128,-14.88776 -5.17869,-2.92375 -11.06314,-6.13382 -13.07624,-7.13345 -4.6106,-2.28937 -4.44603,-3.22645 1.23856,-7.05721 6.33207,-4.26691 3.87499,-4.17591 -2.72715,0.101 -2.93804,1.9033 -6.38648,3.31864 -7.66301,3.1452 -2.75854,-0.37481 -36.31856,-14.54114 -42.95692,-18.13303 -2.54698,-1.37806 -11.5879,-5.44879 -20.09116,-9.0461 -42.27007,-17.88252 -75.89072,-36.33864 -84.19224,-46.2176 -1.47404,-1.75403 -3.61863,-3.31667 -4.76573,-3.47254 -14.78768,-6.1309 -27.56134,-20.00108 -40.39137,-26.6004 -3.34115,-1.46573 -27.1145,-21.68204 -31.55323,-26.83208 -4.53842,-7.24081 -13.01772,-12.77805 -18.22857,-18.32495 -23.28436,-18.23391 -27.27272,-31.25169 -44.66829,-58.39826 -10.49605,-18.84446 -17.46864,-34.83312 -17.74635,-40.69239 -0.17529,-3.70218 0.14832,-3.96074 6.1871,-4.94343 6.2896,-1.0235 34.33137,-1.09866 38.34001,-0.10276 2.26795,0.56336 10.6838,0.50837 18.56647,-0.12132 2.77887,-0.22198 14.02827,-0.31337 24.99892,-0.20309 51.97349,-0.13828 85.6876,-5.26521 127.82567,-2.96412 1.51573,0.20595 3.57218,1.69639 4.56969,3.31209 1.81163,2.93456 1.81421,2.93369 2.43615,-0.84079 0.7065,-4.28913 3.87665,-5.51158 21.99315,-8.4813 13.52176,-2.21648 21.94753,-3.80244 39.35305,-7.40727 16.585,-3.43486 15.15292,-3.89042 27.05327,8.60576 3.85726,4.05015 9.21989,9.35268 11.91702,11.78338 4.97825,4.48632 21.62442,16.52829 23.13084,16.73297 0.45275,0.0615 2.90297,1.90663 5.44457,4.10022 2.54159,2.19359 7.35015,5.09369 10.68545,6.44465 3.33577,1.35096 7.54215,3.33849 9.34769,4.4167 10.80232,6.45071 21.07752,9.41129 46.75942,13.47291 14.0853,2.22753 139.9128,45.65279 146.8509,46.51463 33.965,5.58578 53.662,13.99499 78.8609,17.05971 -9.068,-3.72101 -61.4027,-23.42935 -75.5044,-24.94866 -6.5827,-0.61593 -133.054,-39.72536 -149.1186,-42.59347 -27.2914,-4.87245 -29.9538,-5.55919 -40.5749,-10.46531 -9.29843,-4.2952 -26.25715,-14.59731 -41.2858,-25.08031 -16.62143,-11.59402 -28.66215,-23.90329 -27.98055,-28.60478 0.57104,-3.93822 0.9397,-4.1196 18.74983,-9.21915 7.94522,-2.27498 18.03669,-5.45152 22.42571,-7.059 4.38863,-1.60747 24.79636,-5.48561 43.54871,-10.33611 18.7523,-4.8505 91.2556,1.92757 110.8396,13.9903 36.1759,17.37573 102.0599,24.76646 156.3125,7.2142 48.381,-19.37846 109.84,-50.5482 159.5709,-62.31991 -66.4533,3.52052 -110.4959,37.16804 -160.0903,56.00829 -23.6674,7.00269 -53.8754,12.71596 -104.9949,5.78088 -8.2287,-8.948 38.8044,-53.53042 57.5722,-63.51106 22.4821,-34.56948 17.1376,-39.63269 44.9185,-81.85721 -40.2154,46.2017 -29.8463,59.42031 -49.7647,76.97573 -11.3236,9.97924 -51.1198,41.45665 -65.3997,65.07721 -7.5108,-0.61552 -62.9352,-28.98831 -141.5069,-23.93325 -6.0106,0.77778 -25.74755,4.67924 -37.31321,8.38485 -10.92965,3.14674 -31.55681,11.65955 -48.53506,13.10468 -5.94171,0.24314 -5.79969,-0.53986 1.79226,-9.89008 16.41377,-20.21482 66.06471,-62.13276 95.88741,-81.85482 31.1954,-16.35198 38.1148,-21.46289 55.8778,-44.60683 -55.7866,43.95702 -68.271,42.89066 -73.2107,46.30794 -16.7959,14.96249 -26.44248,21.55295 -36.96561,31.74049 -8.34456,8.07617 -18.53796,20.51566 -19.95086,21.13503 -1.41236,0.61937 -6.20867,5.08103 -10.65826,9.91478 -4.44944,4.83376 -8.87421,9.42379 -9.83249,10.20009 -0.95833,0.77631 -4.85635,5.09086 -8.66255,9.58792 -6.88397,8.1336 -6.98633,8.1937 -19.49726,11.46474 -13.49698,3.52883 -24.11168,5.52215 -50.3985,9.46437 -7.99117,1.19844 -8.67407,1.13561 -10.01135,-0.92121 -2.02631,-3.11595 -4.40898,-3.09779 -6.4159,0.0488 -2.07429,3.25237 -7.1393,4.78516 -18.68061,5.65326 -4.76058,0.35806 -12.70285,0.95479 -17.64947,1.32607 -4.94665,0.37125 -11.76005,0.29921 -15.14074,-0.16013 -22.73033,-1.34816 -33.60957,3.4493 -67.12172,2.49039 -8.61847,-0.5127 -19.74278,-2.32653 -27.88662,-2.98274 -5.81545,-0.4856 -12.40182,-0.55921 -14.63673,-0.16357 -2.23492,0.39562 -9.26311,0.15568 -15.61802,-0.5332 -11.39562,-1.23534 -11.55397,-1.2936 -11.53788,-4.24319 0.0164,-2.96957 13.21091,-16.45224 30.47681,-31.14147 4.00062,-3.40357 10.6185,-9.23245 14.7069,-12.95305 4.08808,-3.7206 12.02234,-10.55808 17.6316,-15.19439 5.60924,-4.63633 13.52967,-11.47641 17.60082,-15.20016 4.07125,-3.72377 7.87758,-6.72878 8.45881,-6.67782 0.58114,0.0509 1.13368,-0.43883 1.22788,-1.0884 0.29703,-2.04818 28.89806,-26.21005 39.32253,-33.21922 5.49124,-3.69218 12.51075,-8.64089 15.59911,-10.9971 3.08811,-2.35625 8.27284,-6.0216 11.52175,-8.14524 7.25165,-4.74036 12.9572,-8.8944 20.34222,-14.81088 3.10784,-2.48952 8.2448,-6.34009 11.41603,-8.55681 3.17126,-2.21673 10.06706,-8.02111 15.32365,-12.89861 5.25697,-4.87754 11.97913,-10.96137 14.93836,-13.51966 2.95908,-2.55829 6.57023,-6.10448 8.02476,-7.88042 1.45452,-1.77595 4.69224,-5.18792 7.19511,-7.58219 2.50278,-2.39426 8.97611,-8.78104 14.38523,-14.19283 5.40892,-5.41181 10.32301,-10.04241 10.91997,-10.29023 2.2167,-0.92022 8.4652,-10.78957 7.33645,-11.58767 -0.64419,-0.45551 -2.29453,0.79018 -3.66746,2.76819 -1.37256,1.97801 -8.38006,9.21135 -15.57125,16.07407 -7.19134,6.86272 -16.45082,15.83132 -20.57635,19.93021 -21.01335,20.87768 -50.26414,44.53388 -76.7619,62.08054 -8.68758,5.75297 -20.82488,14.19597 -26.97177,18.76222 -6.14702,4.56625 -11.6551,8.2372 -12.24052,8.15767 -1.45256,-0.19738 -1.01417,-2.41924 1.87907,-9.52125 2.33385,-5.72858 3.43406,-7.717 7.43341,-13.43447 5.36048,-7.66322 7.29989,-11.15495 8.93381,-16.08386 0.99908,-3.01421 3.89516,-7.88917 6.43613,-10.83325 2.54055,-2.94407 5.16994,-6.62366 5.84287,-8.17686 0.67288,-1.55321 4.31719,-7.97292 8.09831,-14.26603 3.78119,-6.2931 6.57346,-11.77658 6.20443,-12.18551 -1.28941,-1.42986 -5.18086,1.57465 -6.66397,5.1452 -0.82293,1.98078 -2.343,4.56284 -3.37807,5.73792 -3.07261,3.48806 -6.584,9.68828 -6.99246,12.34654 -0.36199,2.35722 -5.20654,10.50631 -10.45002,17.57825 -1.3292,1.79295 -2.76971,4.28846 -3.20114,5.54556 -0.44319,1.2922 -2.07834,2.26583 -3.76156,2.24006 -2.20576,-0.0338 -2.93098,0.64292 -2.79773,2.61014 0.24854,3.66345 -3.81077,15.35383 -7.41671,21.35918 -1.64348,2.73705 -4.93091,8.59572 -7.30553,13.01926 -2.72423,5.07537 -7.24539,10.63938 -12.2539,15.08042 -4.36526,3.8707 -14.61493,13.21801 -22.7768,20.77181 -8.16188,7.5538 -18.18803,16.08373 -22.28067,18.95538 -4.09252,2.87167 -9.33001,6.99517 -11.63898,9.16334 -12.62461,11.85511 -21.52112,19.49073 -25.13906,21.57617 -2.23908,1.29063 -4.14559,2.86003 -4.23636,3.48756 -0.0922,0.62752 -2.59026,3.01992 -5.55405,5.31641 -2.96381,2.2965 -6.59133,5.62805 -8.06119,7.40344 -6.87779,8.30686 -10.58272,8.61298 -74.01118,6.11556 -11.84222,-0.46625 -24.42206,-2.66223 -28.08371,-4.90239 12.19235,-12.16992 34.89267,-21.8724 40.17601,-37.65946 -25.09244,20.74208 -30.47133,25.50911 -36.09759,26.11646 -3.50179,4.51363 -5.7175,7.27622 -13.40574,10.13957 -4.69315,2.34452 -4.79135,2.33967 -36.30584,-1.79603 -32.17106,-5.59043 -73.33784,-10.76551 -100.25665,-18.88817 -6.02147,-4.25764 14.97031,-18.48541 95.53696,-63.74272 6.67184,-3.74774 12.99942,-6.69605 14.06126,-6.55176 1.06211,0.14428 7.06034,-2.7422 13.32983,-6.41437 14.59738,-10.63622 40.94849,-20.44766 50.87546,-26.16154 2.66833,-2.26593 14.07338,-1.08299 27.80613,-7.233 -21.7368,6.85566 -24.38598,3.54151 -22.05456,0.77119 12.6728,-15.05768 21.59913,-26.1679 36.83607,-30.6506 -29.02819,5.44802 -33.72308,29.23877 -45.31207,33.85558 -12.01195,8.28685 -26.29919,13.41767 -40.62411,19.82274 -13.23394,5.98417 -15.49953,7.09391 -21.04986,10.31151 -2.98058,1.72797 -10.73349,5.90516 -17.22871,9.28263 -6.49489,3.37745 -11.85781,6.47786 -11.91737,6.88981 -0.0611,0.41193 -3.00557,1.90874 -6.54629,3.32624 -3.54072,1.41751 -7.69496,3.55882 -9.23206,4.75848 -1.53671,1.19963 -16.22365,9.96904 -32.63762,19.48755 -16.41375,9.51849 -33.39761,19.38011 -37.74179,21.91467 -7.76643,4.53139 -8.05108,4.58731 -17.04432,3.34936 -11.70916,-1.61182 -15.31716,-2.98192 -14.92774,-5.66871 0.28431,-1.96007 -0.034,-2.04229 -3.78162,-0.97974 -2.25048,0.63795 -7.28084,0.72995 -11.17837,0.20447 -7.75927,-1.04658 -33.58825,-7.45293 -43.29738,-10.73968 -4.90743,-1.66128 -33.81154,-9.13609 -52.26047,-13.51487 -8.46944,-2.01029 -27.49856,-8.45638 -29.27646,-9.91749 -1.62418,-1.33489 5.47965,-10.08159 7.27403,-13.10043 2.45377,-4.12823 36.22205,-27.92845 31.04527,-26.4875 0,0 -28.06362,20.45935 -30.79354,21.60936 -13.32026,11.82627 -13.34101,18.83407 -41.46697,8.53474 -8.56987,-3.13813 -28.68727,-11.27639 -32.05044,-12.43691 -8.32879,-2.87391 -39.45278,-10.91001 -46.91492,-14.05854 -3.32786,-1.40414 -26.72756,-7.55277 -30.869514,-8.75405 -10.079983,-2.92344 -107.246668,-50.29528 -108.730042,-51.94025 0.308663,-0.78866 0.681447,-6.0286 2.396066,-9.68278 z M 333.67404,257.20118 c 3.44408,-1.01144 12.47426,-16.95046 26.40969,-44.18826 -1.02518,-1.137 -29.65583,56.69614 -82.56882,70.42677 -0.20668,1.15186 22.01782,-2.59503 56.15913,-26.23851 z m 355.82175,-78.67121 c -18.25094,22.06729 -13.2857,50.20383 -47.52916,58.98577 33.6975,-2.83552 35.80332,-37.96104 47.52916,-58.98577 z"
     style="fill:#ffffff;stroke-width:1.29369891"
     sodipodi:nodetypes="cccssccacsscscccccsccsccccassccccccscssccscccsscccsccccsscscsscccccccsccccccaaacacccccccsccaaccsscccccccsccacaaacacsascscaccccsssccssscccccscccsccccccccccccassscccccsccscscccccccccscsccccccssscscsccccscsscscccccsccccccscccccccscscsccccccccccsscscccccccccccccssssssscscscccccccccssscccsscccccccccscccscccscsscscsscscscccccscccscccccccccc" />
</svg>
